<?xml version="1.0" standalone="no"?><!DOCTYPE svg PUBLIC "-//W3C//DTD SVG 1.1//EN" "http://www.w3.org/Graphics/SVG/1.1/DTD/svg11.dtd"><svg class="icon" style="width: 5em; height: 5em;vertical-align: middle;fill: currentColor;overflow: hidden;" viewBox="0 0 1024 1024" version="1.1" xmlns="http://www.w3.org/2000/svg"><path d="M513.6 232c12.8 0 24-11.2 24-24V86.4c0-12.8-11.2-24-24-24s-24 11.2-24 24V208c0 12.8 9.6 24 24 24zM294.4 281.6c4.8 4.8 11.2 6.4 17.6 6.4s12.8-1.6 17.6-6.4c9.6-9.6 9.6-24 0-33.6l-86.4-86.4c-9.6-9.6-24-9.6-33.6 0-9.6 9.6-9.6 24 0 33.6l84.8 86.4zM206.4 443.2H83.2c-12.8 0-24 11.2-24 24s11.2 24 24 24h121.6c12.8 0 24-11.2 24-24s-9.6-24-22.4-24zM940.8 443.2h-121.6c-12.8 0-24 11.2-24 24s11.2 24 24 24h121.6c12.8 0 24-11.2 24-24s-9.6-24-24-24zM715.2 289.6c6.4 0 12.8-1.6 17.6-6.4l86.4-86.4c9.6-9.6 9.6-24 0-33.6s-24-9.6-33.6 0l-86.4 86.4c-9.6 9.6-9.6 24 0 33.6 3.2 3.2 9.6 6.4 16 6.4zM601.6 835.2H422.4c-12.8 0-22.4 9.6-22.4 22.4v3.2c0 12.8 9.6 22.4 22.4 22.4h179.2c12.8 0 22.4-9.6 22.4-22.4v-3.2c0-12.8-9.6-22.4-22.4-22.4zM600 494.4h-176c-12.8 0-24 11.2-24 24s11.2 24 24 24h64v144c0 12.8 9.6 22.4 22.4 22.4h1.6c12.8 0 22.4-9.6 22.4-22.4v-144h64c12.8 0 24-11.2 24-24 1.6-12.8-8-24-22.4-24zM553.6 913.6h-80c-12.8 0-24 11.2-24 24s11.2 24 24 24h80c12.8 0 24-11.2 24-24-1.6-14.4-11.2-24-24-24z" fill="#3E3A39" /><path d="M512 268.8c-129.6 0-236.8 105.6-236.8 236.8 0 65.6 27.2 128 75.2 172.8l22.4 75.2c1.6 25.6 22.4 44.8 49.6 44.8h180.8c25.6 0 46.4-19.2 49.6-44.8l22.4-75.2c48-44.8 75.2-107.2 75.2-172.8-1.6-129.6-107.2-236.8-238.4-236.8z m124.8 377.6l-4.8 4.8-27.2 91.2-1.6 4.8v3.2l-182.4-1.6v-3.2l-27.2-94.4-4.8-4.8c-40-35.2-64-88-64-140.8 0-104 84.8-188.8 188.8-188.8s188.8 84.8 188.8 188.8c-1.6 54.4-25.6 105.6-65.6 140.8z" fill="#3E3A39" /></svg>